<svg width="275" height="52" viewBox="0 0 275 52" fill="none" xmlns="http://www.w3.org/2000/svg">
<path d="M0 25.6023C0 11.4625 11.4625 0 25.6023 0H59.2053C73.3451 0 84.8076 11.4625 84.8076 25.6023V51.2046H25.6023C11.4625 51.2046 0 39.7421 0 25.6023Z" fill="#3758F9"/>
<path d="M59.2053 9.60086H25.6023C16.7649 9.60086 9.60086 16.7649 9.60086 25.6023C9.60086 34.4396 16.7649 41.6037 25.6023 41.6037H59.2053C68.0426 41.6037 75.2067 34.4396 75.2067 25.6023C75.2067 16.7649 68.0426 9.60086 59.2053 9.60086Z" fill="#A5B4FC"/>
<path d="M25.6023 33.603C30.021 33.603 33.603 30.021 33.603 25.6023C33.603 21.1836 30.021 17.6016 25.6023 17.6016C21.1836 17.6016 17.6016 21.1836 17.6016 25.6023C17.6016 30.021 21.1836 33.603 25.6023 33.603Z" fill="black"/>
<path d="M22.402 24.0021C23.2857 24.0021 24.0021 23.2857 24.0021 22.402C24.0021 21.5183 23.2857 20.8019 22.402 20.8019C21.5183 20.8019 20.8019 21.5183 20.8019 22.402C20.8019 23.2857 21.5183 24.0021 22.402 24.0021Z" fill="white"/>
<path d="M60.8054 33.603C65.2241 33.603 68.8061 30.021 68.8061 25.6023C68.8061 21.1836 65.2241 17.6016 60.8054 17.6016C56.3868 17.6016 52.8047 21.1836 52.8047 25.6023C52.8047 30.021 56.3868 33.603 60.8054 33.603Z" fill="black"/>
<path d="M57.6051 24.0021C58.4889 24.0021 59.2053 23.2857 59.2053 22.402C59.2053 21.5183 58.4889 20.8019 57.6051 20.8019C56.7214 20.8019 56.005 21.5183 56.005 22.402C56.005 23.2857 56.7214 24.0021 57.6051 24.0021Z" fill="white"/>
<path d="M132.496 21.2196H127.27C127.174 20.5434 126.98 19.9428 126.685 19.4178C126.391 18.8848 126.013 18.4313 125.552 18.0574C125.09 17.6835 124.557 17.3971 123.953 17.1982C123.356 16.9994 122.708 16.8999 122.007 16.8999C120.743 16.8999 119.641 17.2141 118.702 17.8426C117.763 18.4631 117.035 19.37 116.518 20.5633C116.001 21.7486 115.743 23.1885 115.743 24.883C115.743 26.6252 116.001 28.089 116.518 29.2743C117.043 30.4596 117.775 31.3546 118.714 31.9592C119.653 32.5638 120.739 32.8661 121.972 32.8661C122.664 32.8661 123.304 32.7746 123.893 32.5917C124.49 32.4087 125.019 32.1422 125.48 31.7922C125.941 31.4342 126.323 31.0006 126.626 30.4915C126.936 29.9823 127.151 29.4016 127.27 28.7493L132.496 28.7731C132.361 29.8948 132.023 30.9767 131.482 32.0189C130.949 33.0531 130.229 33.9798 129.322 34.7992C128.423 35.6107 127.349 36.2551 126.1 36.7324C124.859 37.2017 123.455 37.4364 121.888 37.4364C119.708 37.4364 117.759 36.9432 116.041 35.9567C114.331 34.9703 112.978 33.5423 111.984 31.6728C110.997 29.8033 110.504 27.5401 110.504 24.883C110.504 22.218 111.005 19.9508 112.008 18.0813C113.01 16.2118 114.37 14.7878 116.089 13.8093C117.807 12.8228 119.74 12.3296 121.888 12.3296C123.304 12.3296 124.617 12.5285 125.826 12.9263C127.043 13.324 128.121 13.9048 129.06 14.6685C129.999 15.4242 130.762 16.351 131.351 17.4488C131.948 18.5467 132.329 19.8036 132.496 21.2196ZM144.388 37.4603C142.534 37.4603 140.931 37.0665 139.579 36.2789C138.234 35.4834 137.196 34.3776 136.464 32.9616C135.732 31.5376 135.366 29.8869 135.366 28.0094C135.366 26.1161 135.732 24.4614 136.464 23.0453C137.196 21.6214 138.234 20.5156 139.579 19.728C140.931 18.9325 142.534 18.5347 144.388 18.5347C146.241 18.5347 147.84 18.9325 149.185 19.728C150.537 20.5156 151.579 21.6214 152.311 23.0453C153.043 24.4614 153.409 26.1161 153.409 28.0094C153.409 29.8869 153.043 31.5376 152.311 32.9616C151.579 34.3776 150.537 35.4834 149.185 36.2789C147.84 37.0665 146.241 37.4603 144.388 37.4603ZM144.411 33.5224C145.255 33.5224 145.959 33.2838 146.524 32.8064C147.088 32.3212 147.514 31.6609 147.8 30.8256C148.095 29.9903 148.242 29.0396 148.242 27.9736C148.242 26.9076 148.095 25.957 147.8 25.1217C147.514 24.2864 147.088 23.6261 146.524 23.1408C145.959 22.6555 145.255 22.4129 144.411 22.4129C143.56 22.4129 142.844 22.6555 142.264 23.1408C141.691 23.6261 141.257 24.2864 140.963 25.1217C140.676 25.957 140.533 26.9076 140.533 27.9736C140.533 29.0396 140.676 29.9903 140.963 30.8256C141.257 31.6609 141.691 32.3212 142.264 32.8064C142.844 33.2838 143.56 33.5224 144.411 33.5224ZM163.468 37.4006C162.076 37.4006 160.815 37.0426 159.686 36.3266C158.564 35.6027 157.673 34.5407 157.013 33.1406C156.36 31.7325 156.034 30.0062 156.034 27.9617C156.034 25.8615 156.372 24.1153 157.048 22.7232C157.725 21.323 158.624 20.2769 159.745 19.5848C160.875 18.8848 162.112 18.5347 163.456 18.5347C164.483 18.5347 165.338 18.7097 166.022 19.0598C166.714 19.4018 167.271 19.8314 167.693 20.3485C168.122 20.8577 168.448 21.3588 168.671 21.8521H168.826V12.6637H173.898V37.1023H168.886V34.1668H168.671C168.432 34.6759 168.094 35.1811 167.657 35.6823C167.227 36.1755 166.666 36.5852 165.974 36.9114C165.29 37.2375 164.455 37.4006 163.468 37.4006ZM165.079 33.3554C165.899 33.3554 166.591 33.1326 167.156 32.6871C167.728 32.2337 168.166 31.6012 168.468 30.7898C168.778 29.9784 168.934 29.0277 168.934 27.9378C168.934 26.848 168.782 25.9013 168.48 25.0978C168.178 24.2943 167.74 23.6738 167.167 23.2363C166.595 22.7987 165.899 22.58 165.079 22.58C164.244 22.58 163.54 22.8067 162.967 23.2601C162.394 23.7136 161.961 24.3421 161.666 25.1455C161.372 25.949 161.225 26.8798 161.225 27.9378C161.225 29.0038 161.372 29.9465 161.666 30.7659C161.969 31.5774 162.402 32.2138 162.967 32.6752C163.54 33.1286 164.244 33.3554 165.079 33.3554ZM186.43 37.4603C184.545 37.4603 182.922 37.0784 181.562 36.3147C180.209 35.5431 179.167 34.4532 178.435 33.0451C177.703 31.6291 177.337 29.9545 177.337 28.0214C177.337 26.136 177.703 24.4813 178.435 23.0573C179.167 21.6333 180.197 20.5235 181.526 19.728C182.862 18.9325 184.429 18.5347 186.227 18.5347C187.436 18.5347 188.562 18.7296 189.604 19.1194C190.654 19.5013 191.569 20.078 192.349 20.8497C193.136 21.6214 193.749 22.5919 194.187 23.7613C194.624 24.9228 194.843 26.2831 194.843 27.8424V29.2385H179.366V26.0882H190.058C190.058 25.3564 189.899 24.708 189.58 24.1432C189.262 23.5784 188.821 23.1368 188.256 22.8186C187.699 22.4925 187.051 22.3294 186.311 22.3294C185.539 22.3294 184.855 22.5084 184.258 22.8664C183.67 23.2164 183.208 23.6897 182.874 24.2864C182.54 24.8751 182.369 25.5314 182.361 26.2553V29.2504C182.361 30.1573 182.528 30.9409 182.862 31.6012C183.204 32.2615 183.686 32.7707 184.306 33.1286C184.927 33.4866 185.662 33.6656 186.514 33.6656C187.079 33.6656 187.596 33.5861 188.065 33.427C188.534 33.2679 188.936 33.0292 189.27 32.711C189.604 32.3928 189.859 32.003 190.034 31.5416L194.735 31.8518C194.497 32.9815 194.008 33.9679 193.268 34.8112C192.536 35.6465 191.589 36.2988 190.428 36.7682C189.274 37.2296 187.942 37.4603 186.43 37.4603ZM198.256 37.1023V12.6637H214.723V16.9238H203.423V22.747H213.876V27.0071H203.423V32.8422H214.771V37.1023H198.256ZM223.962 37.4483C222.793 37.4483 221.75 37.2455 220.836 36.8398C219.921 36.4261 219.197 35.8175 218.664 35.014C218.139 34.2026 217.876 33.1923 217.876 31.9831C217.876 30.9648 218.063 30.1096 218.437 29.4175C218.811 28.7254 219.32 28.1685 219.965 27.7469C220.609 27.3253 221.341 27.0071 222.16 26.7923C222.988 26.5775 223.855 26.4263 224.762 26.3388C225.828 26.2275 226.687 26.124 227.339 26.0286C227.991 25.9252 228.465 25.774 228.759 25.5751C229.053 25.3762 229.201 25.0819 229.201 24.6921V24.6205C229.201 23.8647 228.962 23.28 228.485 22.8664C228.015 22.4527 227.347 22.2458 226.48 22.2458C225.565 22.2458 224.837 22.4487 224.296 22.8544C223.755 23.2522 223.397 23.7534 223.222 24.358L218.521 23.9761C218.759 22.8624 219.229 21.8998 219.929 21.0884C220.629 20.269 221.532 19.6405 222.637 19.203C223.751 18.7575 225.04 18.5347 226.504 18.5347C227.522 18.5347 228.497 18.654 229.427 18.8927C230.366 19.1314 231.197 19.5013 231.921 20.0025C232.653 20.5036 233.23 21.148 233.652 21.9356C234.073 22.7152 234.284 23.6499 234.284 24.7398V37.1023H229.463V34.5606H229.32C229.026 35.1334 228.632 35.6385 228.139 36.0761C227.645 36.5056 227.053 36.8437 226.361 37.0904C225.668 37.329 224.869 37.4483 223.962 37.4483ZM225.418 33.9401C226.166 33.9401 226.826 33.7929 227.399 33.4986C227.971 33.1963 228.421 32.7905 228.747 32.2814C229.073 31.7723 229.236 31.1955 229.236 30.5511V28.6061C229.077 28.7095 228.859 28.805 228.58 28.8925C228.31 28.972 228.003 29.0476 227.661 29.1192C227.319 29.1828 226.977 29.2425 226.635 29.2982C226.293 29.3459 225.983 29.3897 225.704 29.4294C225.108 29.517 224.587 29.6562 224.141 29.8471C223.696 30.038 223.349 30.2966 223.103 30.6227C222.856 30.9409 222.733 31.3387 222.733 31.816C222.733 32.5081 222.984 33.0372 223.485 33.4031C223.994 33.7611 224.638 33.9401 225.418 33.9401ZM253.478 24L248.824 24.2864C248.745 23.8886 248.574 23.5306 248.311 23.2124C248.049 22.8862 247.703 22.6277 247.273 22.4368C246.851 22.2379 246.346 22.1385 245.757 22.1385C244.97 22.1385 244.306 22.3055 243.765 22.6396C243.224 22.9658 242.953 23.4033 242.953 23.9522C242.953 24.3898 243.128 24.7597 243.478 25.062C243.828 25.3643 244.429 25.6069 245.28 25.7899L248.597 26.4582C250.379 26.8241 251.708 27.4128 252.583 28.2242C253.458 29.0357 253.896 30.1017 253.896 31.4222C253.896 32.6235 253.542 33.6775 252.834 34.5844C252.134 35.4913 251.171 36.1994 249.946 36.7085C248.729 37.2097 247.325 37.4603 245.734 37.4603C243.307 37.4603 241.374 36.9551 239.934 35.9448C238.502 34.9265 237.663 33.5423 237.416 31.7922L242.416 31.5296C242.567 32.2695 242.933 32.8343 243.514 33.2241C244.095 33.606 244.839 33.7969 245.746 33.7969C246.637 33.7969 247.352 33.6258 247.893 33.2838C248.442 32.9337 248.721 32.4843 248.729 31.9353C248.721 31.4739 248.526 31.0961 248.144 30.8017C247.762 30.4994 247.173 30.2687 246.378 30.1096L243.204 29.4772C241.414 29.1192 240.081 28.4987 239.206 27.6156C238.339 26.7326 237.906 25.6069 237.906 24.2386C237.906 23.0613 238.224 22.047 238.86 21.1958C239.505 20.3445 240.408 19.6882 241.569 19.2268C242.738 18.7654 244.107 18.5347 245.674 18.5347C247.989 18.5347 249.811 19.024 251.139 20.0025C252.476 20.981 253.255 22.3135 253.478 24ZM260.235 43.9756C259.591 43.9756 258.986 43.9239 258.421 43.8205C257.864 43.725 257.403 43.6017 257.037 43.4506L258.183 39.6559C258.779 39.8389 259.316 39.9383 259.794 39.9542C260.279 39.9702 260.696 39.8588 261.046 39.6201C261.404 39.3815 261.695 38.9758 261.918 38.403L262.216 37.6273L255.641 18.7734H260.987L264.781 32.2337H264.972L268.803 18.7734H274.185L267.061 39.0831C266.719 40.0696 266.253 40.9288 265.665 41.6606C265.084 42.4005 264.348 42.9693 263.457 43.3671C262.566 43.7728 261.492 43.9756 260.235 43.9756Z" fill="black"/>
</svg>
