<svg width="36" height="37" viewBox="0 0 36 37" fill="none" xmlns="http://www.w3.org/2000/svg">
<path d="M17.9961 19.3369C17.9961 19.6353 17.8776 19.9214 17.6666 20.1324C17.4556 20.3434 17.1695 20.4619 16.8711 20.4619H10.1211C9.82272 20.4619 9.53658 20.3434 9.3256 20.1324C9.11462 19.9214 8.99609 19.6353 8.99609 19.3369C8.99609 19.0385 9.11462 18.7524 9.3256 18.5414C9.53658 18.3304 9.82272 18.2119 10.1211 18.2119H16.8711C17.1695 18.2119 17.4556 18.3304 17.6666 18.5414C17.8776 18.7524 17.9961 19.0385 17.9961 19.3369ZM16.8711 13.7119H10.1211C9.82272 13.7119 9.53658 13.8304 9.3256 14.0414C9.11462 14.2524 8.99609 14.5385 8.99609 14.8369C8.99609 15.1353 9.11462 15.4214 9.3256 15.6324C9.53658 15.8434 9.82272 15.9619 10.1211 15.9619H16.8711C17.1695 15.9619 17.4556 15.8434 17.6666 15.6324C17.8776 15.4214 17.9961 15.1353 17.9961 14.8369C17.9961 14.5385 17.8776 14.2524 17.6666 14.0414C17.4556 13.8304 17.1695 13.7119 16.8711 13.7119ZM32.6211 22.9186V31.7119C32.6229 31.9102 32.5722 32.1055 32.4742 32.278C32.3762 32.4504 32.2343 32.5938 32.063 32.6938C31.8917 32.7937 31.697 32.8466 31.4986 32.847C31.3003 32.8475 31.1054 32.7955 30.9336 32.6963L27.5586 30.7641L24.1836 32.6963C24.0118 32.7955 23.8169 32.8475 23.6186 32.847C23.4202 32.8466 23.2255 32.7937 23.0542 32.6938C22.8829 32.5938 22.741 32.4504 22.643 32.278C22.545 32.1055 22.4943 31.9102 22.4961 31.7119V28.3369H5.62109C5.02436 28.3369 4.45206 28.0999 4.0301 27.6779C3.60815 27.2559 3.37109 26.6837 3.37109 26.0869V8.08691C3.37109 7.49018 3.60815 6.91788 4.0301 6.49592C4.45206 6.07397 5.02436 5.83691 5.62109 5.83691H30.3711C30.9678 5.83691 31.5401 6.07397 31.9621 6.49592C32.384 6.91788 32.6211 7.49018 32.6211 8.08691V12.3802C33.3323 13.0612 33.8982 13.8792 34.2848 14.7847C34.6715 15.6903 34.8708 16.6648 34.8708 17.6494C34.8708 18.6341 34.6715 19.6085 34.2848 20.5141C33.8982 21.4197 33.3323 22.2376 32.6211 22.9186ZM22.4961 26.0869V22.9186C21.2701 21.7363 20.4953 20.1631 20.3054 18.4705C20.1155 16.778 20.5223 15.0722 21.4558 13.6476C22.3892 12.2229 23.7906 11.1688 25.4183 10.6671C27.0459 10.1654 28.7976 10.2475 30.3711 10.8994V8.08691H5.62109V26.0869H22.4961ZM30.3711 24.3994C29.4801 24.7717 28.5242 24.9633 27.5586 24.9633C26.593 24.9633 25.637 24.7717 24.7461 24.3994V29.7741L26.9961 28.486C27.1661 28.3888 27.3585 28.3377 27.5544 28.3377C27.7502 28.3377 27.9426 28.3888 28.1127 28.486L30.3627 29.7741L30.3711 24.3994ZM32.6211 17.6494C32.6211 16.6481 32.3242 15.6694 31.7679 14.8368C31.2116 14.0043 30.421 13.3554 29.4959 12.9723C28.5709 12.5891 27.553 12.4889 26.5709 12.6842C25.5889 12.8795 24.6869 13.3617 23.9789 14.0697C23.2709 14.7777 22.7887 15.6797 22.5934 16.6618C22.398 17.6438 22.4983 18.6617 22.8815 19.5867C23.2646 20.5118 23.9135 21.3025 24.746 21.8587C25.5785 22.415 26.5573 22.7119 27.5586 22.7119C28.2234 22.7119 28.8817 22.581 29.4959 22.3266C30.1101 22.0721 30.6682 21.6992 31.1383 21.2291C31.6084 20.759 31.9813 20.201 32.2357 19.5867C32.4901 18.9725 32.6211 18.3142 32.6211 17.6494Z" fill="white"/>
</svg>
