<svg width="37" height="37" viewBox="0 0 37 37" fill="none" xmlns="http://www.w3.org/2000/svg">
<path d="M13.9733 10.3125L4.78905 18.4688L13.9676 26.625C14.0784 26.7231 14.1688 26.842 14.2337 26.975C14.2985 27.108 14.3365 27.2525 14.3456 27.4002C14.3546 27.5479 14.3344 27.6959 14.2862 27.8358C14.238 27.9757 14.1627 28.1047 14.0647 28.2155C13.9666 28.3263 13.8477 28.4167 13.7147 28.4816C13.5817 28.5464 13.4372 28.5844 13.2895 28.5934C13.1418 28.6024 12.9938 28.5823 12.8539 28.5341C12.714 28.4859 12.585 28.4106 12.4742 28.3125L2.34921 19.3125C2.2295 19.207 2.13362 19.0771 2.06796 18.9317C2.00229 18.7862 1.96832 18.6284 1.96832 18.4688C1.96832 18.3092 2.00229 18.1514 2.06796 18.0059C2.13362 17.8605 2.2295 17.7306 2.34921 17.625L12.4742 8.62505C12.585 8.52662 12.7141 8.45098 12.8541 8.40244C12.9942 8.35391 13.1424 8.33343 13.2904 8.34218C13.4383 8.35093 13.5831 8.38873 13.7164 8.45343C13.8498 8.51813 13.9691 8.60846 14.0675 8.71927C14.1659 8.83007 14.2416 8.95917 14.2901 9.09921C14.3386 9.23925 14.3591 9.38747 14.3504 9.53542C14.3416 9.68337 14.3038 9.82815 14.2391 9.96149C14.1744 10.0948 14.0841 10.2141 13.9733 10.3125ZM35.3483 17.625L25.2233 8.62505C24.9995 8.42701 24.7062 8.32597 24.4079 8.34417C24.1097 8.36236 23.8308 8.4983 23.6328 8.72208C23.4348 8.94586 23.3337 9.23914 23.3519 9.53741C23.3701 9.83568 23.5061 10.1145 23.7298 10.3125L32.914 18.4688L23.7355 26.625C23.6247 26.7231 23.5343 26.842 23.4694 26.975C23.4046 27.108 23.3666 27.2525 23.3575 27.4002C23.3485 27.5479 23.3687 27.6959 23.4169 27.8358C23.4651 27.9757 23.5404 28.1047 23.6384 28.2155C23.7365 28.3263 23.8554 28.4167 23.9884 28.4816C24.1214 28.5464 24.2659 28.5844 24.4136 28.5934C24.5613 28.6024 24.7093 28.5823 24.8492 28.5341C24.9891 28.4859 25.1181 28.4106 25.2289 28.3125L35.3539 19.3125C35.4736 19.207 35.5695 19.0771 35.6351 18.9317C35.7008 18.7862 35.7348 18.6284 35.7348 18.4688C35.7348 18.3092 35.7008 18.1514 35.6351 18.0059C35.5695 17.8605 35.4736 17.7306 35.3539 17.625H35.3483Z" fill="white"/>
</svg>
