<svg width="37" height="37" viewBox="0 0 37 37" fill="none" xmlns="http://www.w3.org/2000/svg">
<path d="M25.6983 20.5908C25.8029 20.6953 25.8859 20.8193 25.9425 20.9559C25.9991 21.0925 26.0282 21.2389 26.0282 21.3867C26.0282 21.5346 25.9991 21.681 25.9425 21.8175C25.8859 21.9541 25.8029 22.0782 25.6983 22.1827L22.3233 25.5577C22.1122 25.7688 21.8259 25.8873 21.5273 25.8873C21.2288 25.8873 20.9425 25.7688 20.7314 25.5577C20.5203 25.3466 20.4017 25.0603 20.4017 24.7617C20.4017 24.4632 20.5203 24.1769 20.7314 23.9658L23.3119 21.3867L20.7314 18.8077C20.5203 18.5966 20.4017 18.3103 20.4017 18.0117C20.4017 17.7132 20.5203 17.4269 20.7314 17.2158C20.9425 17.0047 21.2288 16.8861 21.5273 16.8861C21.8259 16.8861 22.1122 17.0047 22.3233 17.2158L25.6983 20.5908ZM15.5733 17.2158C15.4688 17.1112 15.3447 17.0282 15.2082 16.9716C15.0716 16.915 14.9252 16.8858 14.7773 16.8858C14.6295 16.8858 14.4831 16.915 14.3465 16.9716C14.21 17.0282 14.0859 17.1112 13.9814 17.2158L10.6064 20.5908C10.5018 20.6953 10.4188 20.8193 10.3622 20.9559C10.3056 21.0925 10.2765 21.2389 10.2765 21.3867C10.2765 21.5346 10.3056 21.681 10.3622 21.8175C10.4188 21.9541 10.5018 22.0782 10.6064 22.1827L13.9814 25.5577C14.0859 25.6622 14.21 25.7451 14.3466 25.8017C14.4832 25.8582 14.6295 25.8873 14.7773 25.8873C14.9252 25.8873 15.0715 25.8582 15.2081 25.8017C15.3447 25.7451 15.4688 25.6622 15.5733 25.5577C15.6778 25.4531 15.7607 25.329 15.8173 25.1925C15.8739 25.0559 15.903 24.9095 15.903 24.7617C15.903 24.6139 15.8739 24.4675 15.8173 24.331C15.7607 24.1944 15.6778 24.0703 15.5733 23.9658L12.9928 21.3867L15.5733 18.8077C15.6779 18.7032 15.7609 18.5791 15.8175 18.4425C15.8741 18.306 15.9032 18.1596 15.9032 18.0117C15.9032 17.8639 15.8741 17.7175 15.8175 17.5809C15.7609 17.4443 15.6779 17.3203 15.5733 17.2158ZM30.5273 12.3867V30.3867C30.5273 30.9835 30.2903 31.5558 29.8683 31.9777C29.4464 32.3997 28.8741 32.6367 28.2773 32.6367H8.02734C7.43061 32.6367 6.85831 32.3997 6.43635 31.9777C6.0144 31.5558 5.77734 30.9835 5.77734 30.3867V5.63672C5.77734 5.03998 6.0144 4.46769 6.43635 4.04573C6.85831 3.62377 7.43061 3.38672 8.02734 3.38672H21.5273C21.6751 3.3866 21.8215 3.4156 21.958 3.47207C22.0946 3.52853 22.2187 3.61134 22.3233 3.71578L30.1983 11.5908C30.3027 11.6953 30.3855 11.8194 30.442 11.956C30.4985 12.0926 30.5275 12.2389 30.5273 12.3867ZM22.6523 11.2617H26.6869L22.6523 7.22719V11.2617ZM28.2773 30.3867V13.5117H21.5273C21.229 13.5117 20.9428 13.3932 20.7318 13.1822C20.5209 12.9712 20.4023 12.6851 20.4023 12.3867V5.63672H8.02734V30.3867H28.2773Z" fill="white"/>
</svg>
