<svg width="37" height="37" viewBox="0 0 37 37" fill="none" xmlns="http://www.w3.org/2000/svg">
<path d="M30.2452 12.0459L22.3702 4.17086C22.2656 4.06642 22.1415 3.98361 22.0049 3.92714C21.8684 3.87068 21.722 3.84168 21.5742 3.8418H8.07422C7.47748 3.8418 6.90519 4.07885 6.48323 4.50081C6.06127 4.92276 5.82422 5.49506 5.82422 6.0918V16.2168C5.82422 16.5152 5.94275 16.8013 6.15372 17.0123C6.3647 17.2233 6.65085 17.3418 6.94922 17.3418C7.24759 17.3418 7.53374 17.2233 7.74471 17.0123C7.95569 16.8013 8.07422 16.5152 8.07422 16.2168V6.0918H20.4492V12.8418C20.4492 13.1402 20.5677 13.4263 20.7787 13.6373C20.9897 13.8483 21.2759 13.9668 21.5742 13.9668H28.3242V30.8418H23.8242C23.5259 30.8418 23.2397 30.9603 23.0287 31.1713C22.8177 31.3823 22.6992 31.6684 22.6992 31.9668C22.6992 32.2652 22.8177 32.5513 23.0287 32.7623C23.2397 32.9733 23.5259 33.0918 23.8242 33.0918H28.3242C28.921 33.0918 29.4933 32.8547 29.9152 32.4328C30.3372 32.0108 30.5742 31.4385 30.5742 30.8418V12.8418C30.5743 12.694 30.5453 12.5477 30.4889 12.4111C30.4324 12.2745 30.3496 12.1504 30.2452 12.0459ZM22.6992 7.68227L26.7337 11.7168H22.6992V7.68227ZM9.19922 20.7168H6.94922C6.65085 20.7168 6.3647 20.8353 6.15372 21.0463C5.94275 21.2573 5.82422 21.5434 5.82422 21.8418V29.7168C5.82422 30.0152 5.94275 30.3013 6.15372 30.5123C6.3647 30.7233 6.65085 30.8418 6.94922 30.8418C7.24759 30.8418 7.53374 30.7233 7.74471 30.5123C7.95569 30.3013 8.07422 30.0152 8.07422 29.7168V28.5918H9.19922C10.2435 28.5918 11.245 28.177 11.9835 27.4385C12.7219 26.7001 13.1367 25.6986 13.1367 24.6543C13.1367 23.61 12.7219 22.6085 11.9835 21.8701C11.245 21.1316 10.2435 20.7168 9.19922 20.7168ZM9.19922 26.3418H8.07422V22.9668H9.19922C9.64677 22.9668 10.076 23.1446 10.3925 23.4611C10.7089 23.7775 10.8867 24.2067 10.8867 24.6543C10.8867 25.1019 10.7089 25.5311 10.3925 25.8475C10.076 26.164 9.64677 26.3418 9.19922 26.3418ZM21.9652 22.438L19.3242 26.6568V29.7168C19.3242 30.0152 19.2057 30.3013 18.9947 30.5123C18.7837 30.7233 18.4976 30.8418 18.1992 30.8418C17.9009 30.8418 17.6147 30.7233 17.4037 30.5123C17.1927 30.3013 17.0742 30.0152 17.0742 29.7168V26.6638L14.4333 22.4451C14.3498 22.3199 14.2923 22.1792 14.2642 22.0313C14.2361 21.8835 14.2379 21.7315 14.2696 21.5844C14.3012 21.4373 14.3621 21.298 14.4486 21.1748C14.535 21.0517 14.6453 20.9471 14.7729 20.8673C14.9005 20.7875 15.0428 20.7341 15.1914 20.7103C15.34 20.6865 15.4918 20.6927 15.638 20.7286C15.7841 20.7646 15.9215 20.8295 16.0422 20.9194C16.1628 21.0094 16.2641 21.1227 16.3402 21.2526L18.1992 24.2198L20.0583 21.2455C20.1343 21.1157 20.2357 21.0024 20.3563 20.9124C20.4769 20.8224 20.6143 20.7575 20.7605 20.7216C20.9066 20.6857 21.0585 20.6795 21.2071 20.7033C21.3556 20.7271 21.498 20.7805 21.6255 20.8603C21.7531 20.94 21.8634 21.0446 21.9499 21.1678C22.0363 21.291 22.0972 21.4302 22.1289 21.5774C22.1605 21.7245 22.1623 21.8765 22.1342 22.0243C22.1061 22.1721 22.0486 22.3128 21.9652 22.438Z" fill="white"/>
</svg>
