<svg width="37" height="37" viewBox="0 0 37 37" fill="none" xmlns="http://www.w3.org/2000/svg">
<g clip-path="url(#clip0_1_969)">
<path d="M31.1875 17.7295V13.2295C31.1876 13.0817 31.1586 12.9354 31.1022 12.7988C31.0457 12.6622 30.9629 12.5381 30.8584 12.4336L22.9834 4.55856C22.8789 4.45412 22.7548 4.3713 22.6182 4.31484C22.4816 4.25838 22.3353 4.22938 22.1875 4.22949H8.6875C8.09076 4.22949 7.51847 4.46655 7.09651 4.8885C6.67455 5.31046 6.4375 5.88276 6.4375 6.47949V17.7295C6.4375 18.0279 6.55603 18.314 6.767 18.525C6.97798 18.736 7.26413 18.8545 7.5625 18.8545C7.86087 18.8545 8.14702 18.736 8.358 18.525C8.56897 18.314 8.6875 18.0279 8.6875 17.7295V6.47949H21.0625V13.2295C21.0625 13.5279 21.181 13.814 21.392 14.025C21.603 14.236 21.8891 14.3545 22.1875 14.3545H28.9375V17.7295C28.9375 18.0279 29.056 18.314 29.267 18.525C29.478 18.736 29.7641 18.8545 30.0625 18.8545C30.3609 18.8545 30.647 18.736 30.858 18.525C31.069 18.314 31.1875 18.0279 31.1875 17.7295ZM23.3125 8.06996L27.347 12.1045H23.3125V8.06996ZM10.375 23.3545V30.1045C10.375 30.4029 10.2565 30.689 10.0455 30.9C9.83452 31.111 9.54837 31.2295 9.25 31.2295C8.95163 31.2295 8.66548 31.111 8.4545 30.9C8.24353 30.689 8.125 30.4029 8.125 30.1045V27.8545H5.3125V30.1045C5.3125 30.4029 5.19397 30.689 4.983 30.9C4.77202 31.111 4.48587 31.2295 4.1875 31.2295C3.88913 31.2295 3.60298 31.111 3.392 30.9C3.18103 30.689 3.0625 30.4029 3.0625 30.1045V23.3545C3.0625 23.0561 3.18103 22.77 3.392 22.559C3.60298 22.348 3.88913 22.2295 4.1875 22.2295C4.48587 22.2295 4.77202 22.348 4.983 22.559C5.19397 22.77 5.3125 23.0561 5.3125 23.3545V25.6045H8.125V23.3545C8.125 23.0561 8.24353 22.77 8.4545 22.559C8.66548 22.348 8.95163 22.2295 9.25 22.2295C9.54837 22.2295 9.83452 22.348 10.0455 22.559C10.2565 22.77 10.375 23.0561 10.375 23.3545ZM18.25 23.3545C18.25 23.6529 18.1315 23.939 17.9205 24.15C17.7095 24.361 17.4234 24.4795 17.125 24.4795H16V30.1045C16 30.4029 15.8815 30.689 15.6705 30.9C15.4595 31.111 15.1734 31.2295 14.875 31.2295C14.5766 31.2295 14.2905 31.111 14.0795 30.9C13.8685 30.689 13.75 30.4029 13.75 30.1045V24.4795H12.625C12.3266 24.4795 12.0405 24.361 11.8295 24.15C11.6185 23.939 11.5 23.6529 11.5 23.3545C11.5 23.0561 11.6185 22.77 11.8295 22.559C12.0405 22.348 12.3266 22.2295 12.625 22.2295H17.125C17.4234 22.2295 17.7095 22.348 17.9205 22.559C18.1315 22.77 18.25 23.0561 18.25 23.3545ZM28.375 23.3545V30.1045C28.375 30.4029 28.2565 30.689 28.0455 30.9C27.8345 31.111 27.5484 31.2295 27.25 31.2295C26.9516 31.2295 26.6655 31.111 26.4545 30.9C26.2435 30.689 26.125 30.4029 26.125 30.1045V26.7295L24.775 28.5295C24.6702 28.6692 24.5343 28.7826 24.3781 28.8607C24.2219 28.9388 24.0497 28.9795 23.875 28.9795C23.7003 28.9795 23.5281 28.9388 23.3719 28.8607C23.2157 28.7826 23.0798 28.6692 22.975 28.5295L21.625 26.7295V30.1045C21.625 30.4029 21.5065 30.689 21.2955 30.9C21.0845 31.111 20.7984 31.2295 20.5 31.2295C20.2016 31.2295 19.9155 31.111 19.7045 30.9C19.4935 30.689 19.375 30.4029 19.375 30.1045V23.3545C19.375 23.1184 19.4493 22.8882 19.5874 22.6967C19.7254 22.5051 19.9202 22.3619 20.1442 22.2872C20.3682 22.2126 20.6101 22.2103 20.8354 22.2807C21.0608 22.3511 21.2583 22.4906 21.4 22.6795L23.875 25.98L26.35 22.6795C26.4917 22.4906 26.6892 22.3511 26.9146 22.2807C27.1399 22.2103 27.3818 22.2126 27.6058 22.2872C27.8298 22.3619 28.0246 22.5051 28.1626 22.6967C28.3007 22.8882 28.375 23.1184 28.375 23.3545ZM36.25 30.1045C36.25 30.4029 36.1315 30.689 35.9205 30.9C35.7095 31.111 35.4234 31.2295 35.125 31.2295H31.1875C30.8891 31.2295 30.603 31.111 30.392 30.9C30.181 30.689 30.0625 30.4029 30.0625 30.1045V23.3545C30.0625 23.0561 30.181 22.77 30.392 22.559C30.603 22.348 30.8891 22.2295 31.1875 22.2295C31.4859 22.2295 31.772 22.348 31.983 22.559C32.194 22.77 32.3125 23.0561 32.3125 23.3545V28.9795H35.125C35.4234 28.9795 35.7095 29.098 35.9205 29.309C36.1315 29.52 36.25 29.8061 36.25 30.1045Z" fill="white"/>
</g>
<defs>
<clipPath id="clip0_1_969">
<rect width="36" height="36" fill="white" transform="translate(0.8125 0.854492)"/>
</clipPath>
</defs>
</svg>
