<svg width="37" height="37" viewBox="0 0 37 37" fill="none" xmlns="http://www.w3.org/2000/svg">
<path d="M33.5156 24.5635H32.3906V11.0635C32.3906 10.1684 32.035 9.30993 31.4021 8.67699C30.7692 8.04406 29.9107 7.68848 29.0156 7.68848H8.76562C7.87052 7.68848 7.01207 8.04406 6.37914 8.67699C5.7462 9.30993 5.39062 10.1684 5.39062 11.0635V24.5635H4.26562C3.96726 24.5635 3.68111 24.682 3.47013 24.893C3.25915 25.104 3.14063 25.3901 3.14062 25.6885V27.9385C3.14063 28.8336 3.4962 29.692 4.12914 30.325C4.76207 30.9579 5.62052 31.3135 6.51562 31.3135H31.2656C32.1607 31.3135 33.0192 30.9579 33.6521 30.325C34.285 29.692 34.6406 28.8336 34.6406 27.9385V25.6885C34.6406 25.3901 34.5221 25.104 34.3111 24.893C34.1001 24.682 33.814 24.5635 33.5156 24.5635ZM7.64062 11.0635C7.64062 10.7651 7.75915 10.479 7.97013 10.268C8.18111 10.057 8.46726 9.93848 8.76562 9.93848H29.0156C29.314 9.93848 29.6001 10.057 29.8111 10.268C30.0221 10.479 30.1406 10.7651 30.1406 11.0635V24.5635H7.64062V11.0635ZM32.3906 27.9385C32.3906 28.2368 32.2721 28.523 32.0611 28.734C31.8501 28.945 31.564 29.0635 31.2656 29.0635H6.51562C6.21726 29.0635 5.93111 28.945 5.72013 28.734C5.50915 28.523 5.39062 28.2368 5.39062 27.9385V26.8135H32.3906V27.9385ZM22.2656 13.3135C22.2656 13.6118 22.1471 13.898 21.9361 14.109C21.7251 14.32 21.439 14.4385 21.1406 14.4385H16.6406C16.3423 14.4385 16.0561 14.32 15.8451 14.109C15.6342 13.898 15.5156 13.6118 15.5156 13.3135C15.5156 13.0151 15.6342 12.729 15.8451 12.518C16.0561 12.307 16.3423 12.1885 16.6406 12.1885H21.1406C21.439 12.1885 21.7251 12.307 21.9361 12.518C22.1471 12.729 22.2656 13.0151 22.2656 13.3135Z" fill="white"/>
</svg>
